<svg width="457" height="93" viewBox="0 0 457 93" fill="none" xmlns="http://www.w3.org/2000/svg">
<mask id="mask0_292_259" style="mask-type:alpha" maskUnits="userSpaceOnUse" x="0" y="0" width="457" height="93">
<path d="M19.494 76.266H45.03V91.314H0V11.286H19.494V76.266Z" fill="white"/>
<path d="M55.0121 21.09C51.5921 21.09 48.7801 20.102 46.5761 18.126C44.4481 16.074 43.3841 13.566 43.3841 10.602C43.3841 7.562 44.4481 5.054 46.5761 3.078C48.7801 1.026 51.5921 0 55.0121 0C58.3561 0 61.0921 1.026 63.2201 3.078C65.4241 5.054 66.5261 7.562 66.5261 10.602C66.5261 13.566 65.4241 16.074 63.2201 18.126C61.0921 20.102 58.3561 21.09 55.0121 21.09ZM64.7021 27.702V91.314H45.2081V27.702H64.7021Z" fill="white"/>
<path d="M98.3232 73.074L112.117 27.702H132.865L110.293 91.314H86.2392L63.6672 27.702H84.5292L98.3232 73.074Z" fill="white"/>
<path d="M191.915 58.482C191.915 60.306 191.801 62.206 191.573 64.182H147.455C147.759 68.134 149.013 71.174 151.217 73.302C153.497 75.354 156.271 76.38 159.539 76.38C164.403 76.38 167.785 74.328 169.685 70.224H190.433C189.369 74.404 187.431 78.166 184.619 81.51C181.883 84.854 178.425 87.476 174.245 89.376C170.065 91.276 165.391 92.226 160.223 92.226C153.991 92.226 148.443 90.896 143.579 88.236C138.715 85.576 134.915 81.776 132.179 76.836C129.443 71.896 128.075 66.12 128.075 59.508C128.075 52.896 129.405 47.12 132.065 42.18C134.801 37.24 138.601 33.44 143.465 30.78C148.329 28.12 153.915 26.79 160.223 26.79C166.379 26.79 171.851 28.082 176.639 30.666C181.427 33.25 185.151 36.936 187.811 41.724C190.547 46.512 191.915 52.098 191.915 58.482ZM171.965 53.352C171.965 50.008 170.825 47.348 168.545 45.372C166.265 43.396 163.415 42.408 159.995 42.408C156.727 42.408 153.953 43.358 151.673 45.258C149.469 47.158 148.101 49.856 147.569 53.352H171.965Z" fill="white"/>
<path d="M228.533 74.784V91.314H218.615C211.547 91.314 206.037 89.604 202.085 86.184C198.133 82.688 196.157 77.026 196.157 69.198V43.89H188.405V27.702H196.157V12.198H215.651V27.702H228.419V43.89H215.651V69.426C215.651 71.326 216.107 72.694 217.019 73.53C217.931 74.366 219.451 74.784 221.579 74.784H228.533Z" fill="white"/>
<path d="M259.227 92.226C252.995 92.226 247.371 90.896 242.355 88.236C237.415 85.576 233.501 81.776 230.613 76.836C227.801 71.896 226.395 66.12 226.395 59.508C226.395 52.972 227.839 47.234 230.727 42.294C233.615 37.278 237.567 33.44 242.583 30.78C247.599 28.12 253.223 26.79 259.455 26.79C265.687 26.79 271.311 28.12 276.327 30.78C281.343 33.44 285.295 37.278 288.183 42.294C291.071 47.234 292.515 52.972 292.515 59.508C292.515 66.044 291.033 71.82 288.069 76.836C285.181 81.776 281.191 85.576 276.099 88.236C271.083 90.896 265.459 92.226 259.227 92.226ZM259.227 75.354C262.951 75.354 266.105 73.986 268.689 71.25C271.349 68.514 272.679 64.6 272.679 59.508C272.679 54.416 271.387 50.502 268.803 47.766C266.295 45.03 263.179 43.662 259.455 43.662C255.655 43.662 252.501 45.03 249.993 47.766C247.485 50.426 246.231 54.34 246.231 59.508C246.231 64.6 247.447 68.514 249.879 71.25C252.387 73.986 255.503 75.354 259.227 75.354Z" fill="white"/>
<path d="M322.351 73.074L336.145 27.702H356.893L334.321 91.314H310.267L287.695 27.702H308.557L322.351 73.074Z" fill="white"/>
<path d="M415.942 58.482C415.942 60.306 415.828 62.206 415.6 64.182H371.482C371.786 68.134 373.04 71.174 375.244 73.302C377.524 75.354 380.298 76.38 383.566 76.38C388.43 76.38 391.812 74.328 393.712 70.224H414.46C413.396 74.404 411.458 78.166 408.646 81.51C405.91 84.854 402.452 87.476 398.272 89.376C394.092 91.276 389.418 92.226 384.25 92.226C378.018 92.226 372.47 90.896 367.606 88.236C362.742 85.576 358.942 81.776 356.206 76.836C353.47 71.896 352.102 66.12 352.102 59.508C352.102 52.896 353.432 47.12 356.092 42.18C358.828 37.24 362.628 33.44 367.492 30.78C372.356 28.12 377.942 26.79 384.25 26.79C390.406 26.79 395.878 28.082 400.666 30.666C405.454 33.25 409.178 36.936 411.838 41.724C414.574 46.512 415.942 52.098 415.942 58.482ZM395.992 53.352C395.992 50.008 394.852 47.348 392.572 45.372C390.292 43.396 387.442 42.408 384.022 42.408C380.754 42.408 377.98 43.358 375.7 45.258C373.496 47.158 372.128 49.856 371.596 53.352H395.992Z" fill="white"/>
<path d="M436.6 38.304C438.88 34.808 441.73 32.072 445.15 30.096C448.57 28.044 452.37 27.018 456.55 27.018V47.652H451.192C446.328 47.652 442.68 48.716 440.248 50.844C437.816 52.896 436.6 56.544 436.6 61.788V91.314H417.106V27.702H436.6V38.304Z" fill="white"/>
</mask>
<g mask="url(#mask0_292_259)">
<rect x="-13.068" y="-5.686" width="487" height="97" fill="white"/>
<rect x="33.932" y="-21.686" width="45" height="45" fill="#E6792B"/>
</g>
</svg>
