<svg width="419" height="85" viewBox="0 0 419 85" fill="none" xmlns="http://www.w3.org/2000/svg">
<mask id="mask0_283_6" style="mask-type:alpha" maskUnits="userSpaceOnUse" x="0" y="0" width="419" height="85">
<path d="M18.348 69.8262H41.7277V83.6036H0.5V10.333H18.348V69.8262Z" fill="white"/>
<path d="M50.867 19.3092C47.7358 19.3092 45.1612 18.4046 43.1433 16.5955C41.195 14.7167 40.2208 12.4205 40.2208 9.70679C40.2208 6.92348 41.195 4.62725 43.1433 2.8181C45.1612 0.939366 47.7358 0 50.867 0C53.9286 0 56.4336 0.939366 58.3819 2.8181C60.3998 4.62725 61.4088 6.92348 61.4088 9.70679C61.4088 12.4205 60.3998 14.7167 58.3819 16.5955C56.4336 18.4046 53.9286 19.3092 50.867 19.3092ZM59.7388 25.3629V83.6036H41.8908V25.3629H59.7388Z" fill="white"/>
<path d="M90.521 66.9037L103.15 25.3629H122.146L101.48 83.6036H79.4573L58.7913 25.3629H77.8917L90.521 66.9037Z" fill="white"/>
<path d="M176.21 53.5439C176.21 55.2139 176.105 56.9534 175.896 58.7626H135.504C135.782 62.3809 136.93 65.1642 138.948 67.1125C141.036 68.9912 143.575 69.9306 146.567 69.9306C151.021 69.9306 154.117 68.0519 155.857 64.2944H174.853C173.879 68.1214 172.104 71.5658 169.53 74.6274C167.025 77.6891 163.859 80.0897 160.032 81.8292C156.205 83.5688 151.925 84.4386 147.194 84.4386C141.488 84.4386 136.408 83.2209 131.955 80.7855C127.502 78.3501 124.023 74.871 121.518 70.3481C119.013 65.8252 117.76 60.5369 117.76 54.4832C117.76 48.4295 118.978 43.1413 121.413 38.6184C123.918 34.0955 127.397 30.6164 131.851 28.181C136.304 25.7456 141.418 24.5279 147.194 24.5279C152.83 24.5279 157.84 25.7108 162.223 28.0766C166.607 30.4424 170.017 33.8172 172.452 38.2009C174.957 42.5846 176.21 47.6989 176.21 53.5439ZM157.944 48.847C157.944 45.7854 156.9 43.35 154.813 41.5409C152.725 39.7317 150.116 38.8271 146.985 38.8271C143.993 38.8271 141.453 39.6969 139.366 41.4365C137.348 43.1761 136.095 45.6462 135.608 48.847H157.944Z" fill="white"/>
<path d="M209.736 68.4694V83.6036H200.655C194.184 83.6036 189.139 82.038 185.521 78.9068C181.903 75.706 180.093 70.522 180.093 63.355V40.184H172.996V25.3629H180.093V11.168H197.941V25.3629H209.631V40.184H197.941V63.5638C197.941 65.3034 198.359 66.5558 199.194 67.3213C200.029 68.0867 201.421 68.4694 203.369 68.4694H209.736Z" fill="white"/>
<path d="M237.838 84.4386C232.133 84.4386 226.983 83.2209 222.391 80.7855C217.868 78.3501 214.285 74.871 211.64 70.3481C209.066 65.8252 207.779 60.5369 207.779 54.4832C207.779 48.4991 209.101 43.2456 211.745 38.7228C214.389 34.1303 218.007 30.6164 222.6 28.181C227.192 25.7456 232.341 24.5279 238.047 24.5279C243.753 24.5279 248.902 25.7456 253.494 28.181C258.087 30.6164 261.705 34.1303 264.349 38.7228C266.993 43.2456 268.316 48.4991 268.316 54.4832C268.316 60.4674 266.959 65.7556 264.245 70.3481C261.601 74.871 257.948 78.3501 253.286 80.7855C248.693 83.2209 243.544 84.4386 237.838 84.4386ZM237.838 68.9912C241.248 68.9912 244.136 67.7387 246.501 65.2338C248.937 62.7288 250.154 59.1453 250.154 54.4832C250.154 49.8212 248.972 46.2377 246.606 43.7327C244.31 41.2277 241.457 39.9753 238.047 39.9753C234.568 39.9753 231.68 41.2277 229.384 43.7327C227.088 46.1681 225.94 49.7516 225.94 54.4832C225.94 59.1453 227.053 62.7288 229.28 65.2338C231.576 67.7387 234.429 68.9912 237.838 68.9912Z" fill="white"/>
<path d="M295.632 66.9037L308.261 25.3629H327.258L306.591 83.6036H284.569L263.902 25.3629H283.003L295.632 66.9037Z" fill="white"/>
<path d="M381.321 53.5439C381.321 55.2139 381.216 56.9534 381.008 58.7626H340.615C340.893 62.3809 342.041 65.1642 344.059 67.1125C346.147 68.9912 348.687 69.9306 351.679 69.9306C356.132 69.9306 359.228 68.0519 360.968 64.2944H379.964C378.99 68.1214 377.215 71.5658 374.641 74.6274C372.136 77.6891 368.97 80.0897 365.143 81.8292C361.316 83.5688 357.036 84.4386 352.305 84.4386C346.599 84.4386 341.52 83.2209 337.066 80.7855C332.613 78.3501 329.134 74.871 326.629 70.3481C324.124 65.8252 322.871 60.5369 322.871 54.4832C322.871 48.4295 324.089 43.1413 326.524 38.6184C329.029 34.0955 332.509 30.6164 336.962 28.181C341.415 25.7456 346.529 24.5279 352.305 24.5279C357.941 24.5279 362.951 25.7108 367.335 28.0766C371.718 30.4424 375.128 33.8172 377.563 38.2009C380.068 42.5846 381.321 47.6989 381.321 53.5439ZM363.055 48.847C363.055 45.7854 362.012 43.35 359.924 41.5409C357.837 39.7317 355.227 38.8271 352.096 38.8271C349.104 38.8271 346.564 39.6969 344.477 41.4365C342.459 43.1761 341.206 45.6462 340.719 48.847H363.055Z" fill="white"/>
<path d="M400.235 35.0697C402.322 31.8689 404.931 29.3639 408.063 27.5547C411.194 25.676 414.673 24.7366 418.5 24.7366V43.6283H413.594C409.141 43.6283 405.801 44.6025 403.574 46.5508C401.348 48.4296 400.235 51.7695 400.235 56.5707V83.6036H382.387V25.3629H400.235V35.0697Z" fill="white"/>
</mask>
<g mask="url(#mask0_283_6)">
<rect x="-11.4646" y="-5.20593" width="445.878" height="88.8095" fill="#4E372B"/>
<rect x="31.5668" y="-19.8549" width="41.2003" height="41.2003" fill="#E55933"/>
</g>
</svg>
